<?xml version="1.0" encoding="utf-8"?>
<!-- Generator: Adobe Illustrator 24.3.0, SVG Export Plug-In . SVG Version: 6.00 Build 0)  -->
<svg version="1.1" id="레이어_1" xmlns="http://www.w3.org/2000/svg" xmlns:xlink="http://www.w3.org/1999/xlink" x="0px"
	 y="0px" viewBox="0 0 70 70" style="enable-background:new 0 0 70 70;" xml:space="preserve">
<style type="text/css">
	.st0{fill:#3599FF;}
</style>
<g>
	<path class="st0" d="M35,20.4c7.2,0,12.3,5.7,11.6,13.9c3.6-0.1,9.2,1.5,9.2,7.6c0,4-3.3,7.2-7.3,7.2H21.5c-4,0-7.3-3.2-7.3-7.2
		c0-5.7,5.2-7.9,9.2-7.6C23.1,25.7,28,20.4,35,20.4z M35,16.3c-8.2,0-15.1,6.4-15.6,14.6c-6.1,1-10.3,6.9-9.3,13
		c0.9,5.5,5.7,9.5,11.3,9.4h27.1c6.2,0.1,11.4-4.9,11.5-11.1c0.1-5.6-3.9-10.4-9.4-11.3C50.1,22.6,43.2,16.2,35,16.3z"/>
</g>
</svg>
