<?xml version="1.0" encoding="utf-8"?>
<!-- Generator: Adobe Illustrator 24.3.0, SVG Export Plug-In . SVG Version: 6.00 Build 0)  -->
<svg version="1.1" id="레이어_1" xmlns="http://www.w3.org/2000/svg" xmlns:xlink="http://www.w3.org/1999/xlink" x="0px"
	 y="0px" viewBox="0 0 80 80" style="enable-background:new 0 0 80 80;" xml:space="preserve">
<style type="text/css">
	.st0{fill:none;}
	.st1{fill:#3599FF;}
	.st2{fill:#98A7B7;}
</style>
<g>
	<path class="st0" d="M21,51.7V70c6.1,1.2,12.1,3,17.9,5.5l0-18.1C34.9,54.8,27,52.5,21,51.7z"/>
	<path class="st0" d="M42.1,75.5c5.8-2.4,11.7-4.3,17.9-5.5V51.7c-6,0.8-13.9,3.1-17.9,5.7V75.5z"/>
	<path class="st0" d="M17.8,48c12.9,1.1,20.5,5.1,22.8,6.5c2.2-1.4,9.8-5.4,22.8-6.5v10.3v6.5c2.3-0.8,4.4-1.8,6.5-3l0-6.4
		c0-6.9-0.2-8.5-6.1-9.9c-7.4-1.7-15-2.6-17-7.8c-0.9-2.4-0.4-5,1.6-7.9c5.1-7.6,6.5-14.6,3.8-19.9c-2.3-4.2-6.8-6.8-11.6-6.7
		c-4.8-0.1-9.3,2.5-11.6,6.7c-2.7,5.3-1.3,12.4,3.8,19.9c2,2.9,2.5,5.5,1.6,7.9c-2,5.2-9.6,6.1-17,7.8c-5.9,1.3-6.1,3-6.1,9.8l0,6.5
		c2.1,1.2,4.2,2.2,6.5,3v-7.5V48z"/>
	<path class="st1" d="M63.3,58.3V48c-12.9,1.1-20.6,5.1-22.8,6.5c-2.2-1.4-9.8-5.4-22.8-6.5v9.3v7.5v3.6v4.5
		c7.9,1.2,15.6,3.6,22.8,7.1c7.2-3.5,14.9-5.9,22.8-7.1v-4.5c0,0,0,0,0,0v-3.5V58.3z M21,70V51.7c6,0.8,13.9,3.1,17.9,5.7l0,18.1
		C33.1,73.1,27.1,71.2,21,70z M60,70c-6.1,1.2-12.1,3-17.9,5.5V57.4c4-2.6,11.9-4.9,17.9-5.7V70z"/>
	<path class="st2" d="M64.4,42.3C55.1,40.2,46,39.1,51,31.8C63.6,13.3,53.2,0,40.5,0S17.4,13.4,30,31.8c5.1,7.4-4.3,8.4-13.4,10.5
		c-8.3,1.9-8.6,6-8.6,13l0,8.3c0,0,3.1,2.5,9.7,4.8v-3.6c-2.3-0.8-4.4-1.8-6.5-3l0-6.5c0-6.8,0.2-8.4,6.1-9.8c7.4-1.7,15-2.6,17-7.8
		c0.9-2.4,0.4-5-1.6-7.9c-5.2-7.5-6.5-14.5-3.8-19.9c2.3-4.3,6.8-6.9,11.6-6.7c4.8-0.2,9.3,2.4,11.6,6.7c2.7,5.3,1.3,12.4-3.8,19.9
		c-2,2.9-2.5,5.5-1.6,7.9c2,5.1,9.5,6.1,17,7.8c5.9,1.3,6.1,3,6.1,9.9l0,6.4c-2.1,1.2-4.2,2.2-6.5,3v3.5c6.6-2.2,9.7-4.8,9.7-4.8
		l0-8.2C73,48.3,72.7,44.2,64.4,42.3z"/>
</g>
</svg>
