<?xml version="1.0" encoding="utf-8"?>
<!-- Generator: Adobe Illustrator 24.3.0, SVG Export Plug-In . SVG Version: 6.00 Build 0)  -->
<svg version="1.1" id="레이어_1" xmlns="http://www.w3.org/2000/svg" xmlns:xlink="http://www.w3.org/1999/xlink" x="0px"
	 y="0px" viewBox="0 0 70 70" style="enable-background:new 0 0 70 70;" xml:space="preserve">
<style type="text/css">
	.st0{fill:#98A7B7;}
	.st1{fill:#3599FF;}
</style>
<g>
	<path class="st0" d="M0,45.8v-0.4C0,45.5,0,45.7,0,45.8z"/>
	<path class="st0" d="M70,45.6c0,0,0-0.1,0-0.1v0.3C70,45.8,70,45.7,70,45.6z"/>
	<path class="st0" d="M16,62H54c8.9-0.1,16-7.3,16-16.2v-0.3c-0.1-7.7-5.6-14.2-13.2-15.6C56.2,18.2,46.7,9.1,35,9
		c-11.7,0.1-21.3,9.2-21.8,20.9c-7.6,1.4-13,8-13.2,15.5v0.4c0,1,0.1,2,0.3,3C1.7,56.4,8.3,61.9,16,62z M18.8,34.9
		c-0.5-12.4,6.4-20,16.2-20c10.1,0,17.2,8.2,16.2,20c5.1-0.1,12.9,2.2,12.9,11c0,5.7-4.5,10.3-10.2,10.3H16
		c-5.7,0-10.2-4.6-10.2-10.3C5.8,37.6,13.1,34.5,18.8,34.9z"/>
	<path class="st1" d="M16,50.2H54c2.4,0,4.4-2,4.4-4.5c0-2.4-2-4.3-4.4-4.4H16c-2.4,0-4.4,2-4.4,4.5C11.7,48.3,13.7,50.2,16,50.2z
		 M43.8,44.3H54c0.8,0,1.5,0.7,1.5,1.5c0,0.8-0.7,1.5-1.5,1.5v0H43.8V44.3z"/>
</g>
</svg>
