<?xml version="1.0" encoding="utf-8"?>
<!-- Generator: Adobe Illustrator 24.3.0, SVG Export Plug-In . SVG Version: 6.00 Build 0)  -->
<svg version="1.1" id="레이어_1" xmlns="http://www.w3.org/2000/svg" xmlns:xlink="http://www.w3.org/1999/xlink" x="0px"
	 y="0px" viewBox="0 0 30 30" style="enable-background:new 0 0 30 30;" xml:space="preserve">
<style type="text/css">
	.st0{fill:#98A7B7;}
	.st1{fill:#3599FF;}
</style>
<g>
	<polygon class="st0" points="16.9,5.3 16.9,5.3 16.9,5.3 	"/>
	<path class="st1" d="M19,4.1l-1.2-0.6l-0.9,1.8c0.4,0.1,0.8,0.3,1.2,0.6L19,4.1z"/>
	<path class="st1" d="M15.7,5V3h-1.3v2C14.8,5,15.2,5,15.7,5z"/>
	<path class="st1" d="M21.5,6.6l-0.8-1.1L19,6.7c0.3,0.3,0.6,0.7,0.8,1.1L21.5,6.6z"/>
	<path class="st1" d="M22.3,9h-2.1c0.1,0.4,0.1,0.9,0.1,1.3h2V9z"/>
	<path class="st1" d="M13.1,5.3l-0.9-1.8L11,4.1l0.9,1.8C12.3,5.7,12.7,5.5,13.1,5.3z"/>
	<path class="st1" d="M19.7,12.8l1.4,0.7l0.5-1.2l-1.5-0.7C20,11.9,19.9,12.4,19.7,12.8z"/>
	<path class="st1" d="M13.5,17C13.5,17,13.5,17,13.5,17c-0.2,0-0.4,0.2-0.4,0.4c0,0.2,0.2,0.3,0.4,0.3h3c0,0,0,0,0,0
		c0.2,0,0.3-0.2,0.3-0.4c0-0.2-0.2-0.3-0.4-0.3H13.5z"/>
	<path class="st1" d="M14.8,16.4c0-3.7-1.8-4.8-1.8-6.2c0,0,0-0.1,0-0.1c0.1-1,1-1.8,2-1.7h0c0,0,0.1,0,0.1,0c1,0,1.9,0.8,1.9,1.8
		c0,1.4-1.8,2.5-1.8,6.2h1.9c0-3.4,1.9-3.8,1.9-6.2c0-0.1,0-0.1,0-0.2c-0.1-2.1-1.9-3.7-4-3.6h0c-0.1,0-0.1,0-0.2,0
		c-2.1,0-3.8,1.7-3.8,3.8c0,2.4,1.9,2.8,1.9,6.2H14.8z"/>
	<path class="st1" d="M13.5,18.3l0.8,0.5c0.1,0.1,0.3,0.1,0.4,0.1h0.6c0.1,0,0.3,0,0.4-0.1l0.8-0.5H13.5z"/>
	<path class="st0" d="M24.5,12c-1.4,0-2.5,1.2-2.5,2.5v3.3c0,0-0.1-0.1-0.1-0.1c-0.9-0.7-2.2-0.6-3,0.3c-0.4,0.4-1.2,1.2-1.8,1.9
		c-1.6,1.9-1.5,4-0.2,7h2.2c-0.5-1.1-1.9-4.1-0.6-5.5c0.2-0.3,1-1.1,1.8-1.8c0.5-0.5,1.1,0,0.6,0.5c-0.2,0.3-1.3,1.4-1.5,1.6
		c0,0,0,0,0,0c-0.3,0.4-0.3,1,0.1,1.3s1,0.3,1.3-0.1c0.6-0.6,1.9-2.1,2.4-2.7c0.5-0.5,0.8-1.2,0.9-1.9v-3.9c0-0.3,0.2-0.5,0.5-0.5
		c0.3,0,0.5,0.2,0.5,0.5v4.8c0,0.4-0.1,0.7-0.2,1c-0.5,1-2.2,3.5-2.5,6.6h2c0.4-1.9,1.1-3.7,2.1-5.3c0.4-0.7,0.7-1.6,0.6-2.4v-4.8
		C27,13.1,25.8,12,24.5,12z"/>
	<path class="st0" d="M11.1,18.1c-0.7-0.9-2.1-1.1-3-0.3c0,0-0.1,0.1-0.1,0.1v-3.3c0-1.4-1.1-2.5-2.5-2.6C4.2,12,3,13.1,3,14.5v4.8
		c0,0.8,0.2,1.7,0.6,2.4c1,1.6,1.7,3.4,2.1,5.3h2c-0.3-3.1-2.1-5.6-2.5-6.6c-0.2-0.3-0.2-0.7-0.2-1v-4.8c0-0.3,0.2-0.5,0.5-0.5
		c0.3,0,0.5,0.2,0.5,0.5v3.9c0,0.7,0.3,1.4,0.9,1.9c0.5,0.6,1.8,2.1,2.4,2.7c0.3,0.4,0.9,0.4,1.3,0.1s0.4-0.9,0.1-1.3c0,0,0,0,0,0
		c-0.2-0.2-1.2-1.4-1.5-1.6c-0.4-0.6,0.1-1,0.6-0.5c0.7,0.7,1.5,1.6,1.8,1.8c1.3,1.4-0.1,4.4-0.6,5.5l2.2,0c1.3-3,1.5-5.1-0.2-7
		C12.3,19.3,11.5,18.5,11.1,18.1z"/>
	<path class="st1" d="M9.7,10.3c0-0.4,0-0.9,0.1-1.3H7.7v1.3L9.7,10.3L9.7,10.3z"/>
	<path class="st1" d="M11,6.7L9.3,5.5L8.5,6.6l1.7,1.2C10.4,7.4,10.7,7,11,6.7z"/>
	<path class="st1" d="M8.3,12.2l0.5,1.2l1.5-0.7c-0.2-0.4-0.4-0.8-0.5-1.2L8.3,12.2z"/>
</g>
</svg>
