<?xml version="1.0" encoding="utf-8"?>
<!-- Generator: Adobe Illustrator 24.3.0, SVG Export Plug-In . SVG Version: 6.00 Build 0)  -->
<svg version="1.1" id="레이어_1" xmlns="http://www.w3.org/2000/svg" xmlns:xlink="http://www.w3.org/1999/xlink" x="0px"
	 y="0px" viewBox="0 0 30 30" style="enable-background:new 0 0 30 30;" xml:space="preserve">
<style type="text/css">
	.st0{fill:#1E6788;}
	.st1{fill:#98A7B7;}
	.st2{fill:#3599FF;}
</style>
<g>
	<polygon class="st0" points="21.4,16.5 21.4,16.5 21.4,16.5 	"/>
	<polygon class="st1" points="4.9,8 3,15.6 6.5,16.5 8.5,8.9 	"/>
	<path class="st2" d="M22,14.5c-0.5,0.2-0.9,0.4-1.3,0.6c-0.8-0.8-2.7-2.5-3.4-3.1c-0.3-0.4-0.8-0.6-1.2-0.6c-0.4,0-0.8,0.2-1.1,0.5
		c-0.6,0.5-2,1.4-2.6,0.9c1.2-0.9,2.3-1.9,3.2-3.1c0.2-0.3,0.6-0.2,1.1,0c1.8,1,2.7,1.5,4.5,1.5h0l-0.4-1.5c-1.1,0-1.9-0.5-3.4-1.3
		C16.8,8.2,16.4,8,15.9,8c-0.6,0-1.1,0.3-1.5,0.7l-0.5,0.6c-2-1.5-3.2-0.4-4.5,0.1L8.9,11c0.6-0.1,1.3-0.3,1.9-0.6
		c0.9-0.4,1.3-0.6,2.1,0c-0.5,0.5-1,0.9-1.6,1.3c-0.5,0.3-0.7,0.9-0.5,1.4c0.3,0.8,1.1,1.4,2,1.3c1.2-0.1,2.4-0.7,3.3-1.5
		c1.5,1.4,2.9,2.7,4.1,3.8c0,0,0.1,0.1,0.1,0.1c0.2,0.3,0.2,0.7-0.1,0.9c-0.3,0.2-0.7,0.2-1-0.1l-1.9-1.7c-0.1,0-0.2,0-0.2,0
		C17,16,17,16.1,17,16.1l1.9,1.6c0,0,0,0,0,0c0.2,0.3,0.2,0.7-0.1,0.9c-0.3,0.2-0.7,0.2-1-0.1l-1.5-1.3c-0.1-0.1-0.2,0-0.2,0
		c-0.1,0.1-0.1,0.2,0,0.2l1.5,1.3c0,0,0,0,0,0c0.2,0.3,0.2,0.7-0.1,0.9c-0.3,0.2-0.7,0.2-1-0.1l-0.5-0.4V19
		c-0.1-0.8-0.7-1.4-1.4-1.4c-0.2-0.6-0.7-0.9-1.3-1c-0.2-0.6-0.7-0.9-1.3-1c-0.1-0.1-0.1-0.2-0.2-0.3c-0.6-0.7-1.6-0.9-2.4-0.3
		c-0.5-0.1-1-0.3-1.5-0.4l-0.4,1.5C7.9,16,8.2,16,8.4,16.1c-0.1,0.2-0.2,0.5-0.3,0.7c-0.1,0.9,0.6,1.7,1.4,1.8
		c0.2,0.6,0.7,0.9,1.3,1c0.2,0.6,0.7,0.9,1.3,1c0,0,0,0,0,0.1c0.4,0.8,1.4,1.2,2.2,0.8c0.4,0.4,0.9,0.5,1.4,0.5c0.7,0,1.4-0.4,1.7-1
		c0.6-0.1,1-0.5,1.3-1c0.6-0.1,1-0.5,1.3-1c0.1,0,0.3-0.1,0.4-0.1c0.9-0.4,1.3-1.5,0.9-2.4c0,0,0,0,0,0v0c0,0,0,0,0,0
		c0.3-0.2,0.6-0.3,0.9-0.5L22,14.5z M10.4,17.3c-0.2,0.3-0.7,0.4-1,0.1c0,0,0,0,0,0c-0.3-0.2-0.3-0.6,0-0.9l0.6-0.7
		c0.2-0.3,0.7-0.4,1-0.1c0,0,0,0,0,0c0.3,0.2,0.3,0.6,0,0.9L10.4,17.3L10.4,17.3z M11.7,18.3c-0.2,0.3-0.7,0.4-1,0.1c0,0,0,0,0,0
		c-0.3-0.2-0.3-0.6,0-0.9l0.6-0.8c0.2-0.3,0.7-0.4,1-0.1c0,0,0,0,0,0c0.3,0.2,0.3,0.6,0,0.9L11.7,18.3L11.7,18.3z M13,19.3
		c-0.2,0.3-0.7,0.4-1,0.1c0,0,0,0,0,0c-0.3-0.2-0.3-0.6,0-0.9l0.6-0.7c0.2-0.3,0.7-0.4,1-0.1c0,0,0,0,0,0c0.3,0.2,0.3,0.6,0,0.9
		L13,19.3L13,19.3z M15,19.6l-0.6,0.8c-0.2,0.3-0.7,0.4-1,0.1c0,0,0,0,0,0c-0.3-0.2-0.3-0.6,0-0.9l0.6-0.8c0.2-0.3,0.7-0.4,1-0.1v0
		c0,0,0,0,0,0C15.2,18.9,15.2,19.3,15,19.6z M16.3,20.7c-0.1,0.1-0.3,0.1-0.4,0.1c-0.2,0-0.3-0.1-0.4-0.2l0.4-0.4
		c0.2-0.2,0.3-0.4,0.3-0.7l0.2,0.2v0c0,0,0,0,0,0C16.6,20.1,16.5,20.5,16.3,20.7z"/>
	<polygon class="st1" points="21.5,8.9 23.5,16.5 27,15.6 25.1,8 	"/>
</g>
</svg>
