<?xml version="1.0" encoding="utf-8"?>
<!-- Generator: Adobe Illustrator 24.3.0, SVG Export Plug-In . SVG Version: 6.00 Build 0)  -->
<svg version="1.1" id="레이어_1" xmlns="http://www.w3.org/2000/svg" xmlns:xlink="http://www.w3.org/1999/xlink" x="0px"
	 y="0px" viewBox="0 0 30 30" style="enable-background:new 0 0 30 30;" xml:space="preserve">
<style type="text/css">
	.st0{fill:#3599FF;}
	.st1{fill:#98A7B7;}
</style>
<g>
	<path class="st0" d="M15,7.5c1.2,0,2.3-1,2.3-2.3S16.2,3,15,3c-1.2,0-2.2,1-2.3,2.3C12.8,6.5,13.8,7.5,15,7.5z M15,4.3
		c0.5,0,0.9,0.4,0.9,0.9S15.5,6.2,15,6.2s-0.9-0.4-0.9-0.9S14.5,4.3,15,4.3z"/>
	<path class="st0" d="M21.8,17.3c0,1.2,1,2.3,2.3,2.3s2.3-1,2.3-2.3S25.2,15,24,15C22.8,15,21.8,16,21.8,17.3z M24.9,17.3
		c0,0.5-0.4,0.9-0.9,0.9s-0.9-0.4-0.9-0.9s0.4-0.9,0.9-0.9S24.9,16.8,24.9,17.3z"/>
	<path class="st1" d="M24.8,13h2c-0.7-4.3-3.7-7.8-7.8-9.3v2.1C22,7.1,24.1,9.8,24.8,13z"/>
	<path class="st0" d="M6,15.2c-1.2,0-2.2,1-2.3,2.3c0,1.2,1,2.3,2.3,2.3s2.3-1,2.3-2.3C8.3,16.2,7.2,15.2,6,15.2z M6,18.3
		c-0.5,0-0.9-0.4-0.9-0.9s0.4-0.9,0.9-0.9s0.9,0.4,0.9,0.9S6.5,18.3,6,18.3z"/>
	<path class="st1" d="M9.7,23.5l-1.2,1.6c4,2.6,9.1,2.6,13,0l-1.2-1.6C17,25.5,13,25.5,9.7,23.5z"/>
	<path class="st0" d="M25,20h-2c-1.1,0-2,0.9-2,2h1.4c0.2-0.6,0.8-0.7,1.6-0.7c0.8,0,1.4,0.1,1.6,0.7H27C27,20.9,26.1,20,25,20z"/>
	<path class="st0" d="M15,9.3c0.8,0,1.4,0.1,1.6,0.7H18c0-1.1-0.9-2-2-2h-2c-1.1,0-2,0.9-2,2h1.4C13.6,9.4,14.2,9.3,15,9.3z"/>
	<path class="st0" d="M7,20.2H5c-1.1,0-2,0.9-2,2h1.4c0.2-0.6,0.8-0.7,1.6-0.7s1.4,0.1,1.6,0.7H9C9,21.1,8.1,20.2,7,20.2z"/>
	<path class="st1" d="M11,5.8V3.7c-4.1,1.5-7.1,5-7.8,9.3h2C5.9,9.8,8,7.1,11,5.8z"/>
</g>
</svg>
