<?xml version="1.0" encoding="utf-8"?>
<!-- Generator: Adobe Illustrator 24.3.0, SVG Export Plug-In . SVG Version: 6.00 Build 0)  -->
<svg version="1.1" id="레이어_1" xmlns="http://www.w3.org/2000/svg" xmlns:xlink="http://www.w3.org/1999/xlink" x="0px"
	 y="0px" viewBox="0 0 80 80" style="enable-background:new 0 0 80 80;" xml:space="preserve">
<style type="text/css">
	.st0{fill:#3599FF;}
	.st1{fill:#98A7B7;}
</style>
<g>
	<rect x="50" y="54" class="st0" width="13.3" height="3.5"/>
	<path class="st0" d="M37.4,45.4c-2.4-0.6-5.6-1.4-6.1-2.4c-0.2-0.4,0.1-1.1,0.3-1.4c3.6-7.2,4.3-13.5,1.8-17.8
		c-1.8-3-5-4.8-8.5-4.7c-3.5-0.1-6.8,1.7-8.5,4.8c-2.5,4.3-1.8,10.6,1.9,17.8c0.2,0.4,0.5,1,0.3,1.4c-0.5,1.1-3.7,1.8-6.3,2.5
		c-5.7,1.4-5.7,5.2-5.7,8.9v3.2h36.7l0-3.2C43.3,50.7,43.4,46.8,37.4,45.4z M10,54c0-3.5,0.2-4.4,3.4-5.2c3.7-0.9,7.2-1.7,8.3-4.4
		c0.6-1.5,0.4-3.2-0.4-4.5c-3.1-5.9-3.8-11.1-2-14.3c1.2-2,3.4-3.2,5.7-3c2.3-0.1,4.5,1,5.6,3c1.8,3.2,1.2,8.3-1.9,14.4
		c-0.8,1.4-1,3-0.4,4.5c1.1,2.6,4.7,3.5,8.6,4.4c2.9,0.7,3.1,1.6,3.1,5.2H10z"/>
	<rect x="50" y="43.5" class="st0" width="20" height="3.5"/>
	<path class="st1" d="M0,75h80V5H0V75z M3.3,8.5h73.3v63H3.3V8.5z"/>
	<rect x="50" y="33" class="st0" width="20" height="3.5"/>
	<rect x="50" y="22.5" class="st0" width="20" height="3.5"/>
</g>
</svg>
