<?xml version="1.0" encoding="utf-8"?>
<!-- Generator: Adobe Illustrator 24.3.0, SVG Export Plug-In . SVG Version: 6.00 Build 0)  -->
<svg version="1.1" id="레이어_1" xmlns="http://www.w3.org/2000/svg" xmlns:xlink="http://www.w3.org/1999/xlink" x="0px"
	 y="0px" viewBox="0 0 70 70" style="enable-background:new 0 0 70 70;" xml:space="preserve">
<style type="text/css">
	.st0{fill:#3599FF;}
	.st1{fill:#98A7B7;}
</style>
<g>
	<polygon class="st0" points="33,25.8 30.2,23.2 28.3,25.1 33,29.7 40.7,21.7 38.8,19.8 	"/>
	<path class="st1" d="M39.9,40.9L39.9,40.9c-1.5,1.1-2.2,1.7-4.1,2.1c0.9,6.2,3.6,12.1,7.7,16.8c0.3-1.6,0.8-3.2,1.6-4.7
		c1.8,0.9,3.8,1.4,5.8,1.2c-4.2-4.2-6.7-9.9-7.2-15.8C42.6,40.8,41.2,40.9,39.9,40.9z"/>
	<path class="st1" d="M25.2,40.5c-0.4,6-3,11.6-7.2,15.8c2,0.2,4.1-0.2,5.8-1.2c0.8,1.5,1.3,3.1,1.6,4.7c4.1-4.8,6.8-10.6,7.7-16.8
		c-1.9-0.4-2.5-1-4.1-2.1C27.8,40.9,26.5,40.8,25.2,40.5z"/>
	<path class="st1" d="M41.5,36.8L41.5,36.8c1.3,0,2.5-0.8,2.9-2.1c1-3,0.6-2.5,3.2-4.3c0.8-0.5,1.3-1.4,1.3-2.4
		c0-0.3-0.1-0.6-0.2-0.9c-1-3-1-2.4,0-5.3c0.1-0.3,0.2-0.6,0.2-0.9c0-1-0.5-1.9-1.3-2.4c-2.6-1.8-2.2-1.4-3.2-4.3
		C44,12.9,42.8,12,41.5,12h0c-3.2,0-2.6,0.2-5.2-1.6c-1.1-0.8-2.5-0.8-3.6,0c-2.6,1.8-2,1.7-5.2,1.6h0c-1.3,0-2.5,0.8-2.9,2.1
		c-1,3-0.6,2.5-3.2,4.3c-0.8,0.5-1.3,1.4-1.3,2.4c0,0.3,0.1,0.6,0.2,0.9c1,3,1,2.4,0,5.3c-0.1,0.3-0.2,0.6-0.2,0.9
		c0,1,0.5,1.9,1.3,2.4c2.6,1.8,2.2,1.4,3.2,4.3c0.4,1.2,1.6,2.1,2.9,2.1h0c3.2,0,2.6-0.2,5.2,1.6c1.1,0.8,2.5,0.8,3.6,0
		C38.9,36.6,38.3,36.8,41.5,36.8z M34.5,34.3c-5.4,0-9.7-4.3-9.8-9.7c-0.1-5.4,4.3-9.8,9.7-9.9c5.4-0.1,9.8,4.3,9.9,9.7c0,0,0,0,0,0
		C44.3,29.8,39.9,34.3,34.5,34.3z"/>
</g>
</svg>
