<?xml version="1.0" encoding="utf-8"?>
<!-- Generator: Adobe Illustrator 24.3.0, SVG Export Plug-In . SVG Version: 6.00 Build 0)  -->
<svg version="1.1" id="레이어_1" xmlns="http://www.w3.org/2000/svg" xmlns:xlink="http://www.w3.org/1999/xlink" x="0px"
	 y="0px" viewBox="0 0 70 70" style="enable-background:new 0 0 70 70;" xml:space="preserve">
<style type="text/css">
	.st0{fill:#98A7B7;}
	.st1{fill:#3599FF;}
</style>
<g>
	<path class="st0" d="M35,3C13.4,3,0,18.5,0,30.8C0,38.7,6.3,44.1,14.5,44c2.4,5.8,8.9,10,16.9,7.6c5.1,4.2,7,12.1,8,15.4l10.9-3.5
		c-1.1-3.4-1.5-7-1.1-10.6C59,53.4,70,46.4,70,33.2C70,18.6,56.9,3,35,3z M44.6,46.5c-1.4,4.3-1.7,8.8-1,13.2l-0.3,0.1l0,0
		c-2.9-7.6-6.4-12.3-10.9-14.4c-5.4,2.6-12.6,0.1-13.6-7c-6.6,0.7-13.4-1.4-13-8.2C6.4,21.2,17.1,8.7,35.4,8.8
		c18,0.3,28.2,12.5,28.7,23.6C64.6,43.1,56,48.5,44.6,46.5z"/>
	<path class="st1" d="M48,27.8c-3.5-2.7-7-5.5-10.5-8.1c1.1-2.9-0.2-6.2-3-7.5c-2.9-1.3-6.4,0-7.7,2.9s0,6.4,2.9,7.7h0
		c-0.4,2.1-0.8,4.2-1.1,6.4c-2.6,0.3-4.7,2.2-5.1,4.8c-0.6,3.2,1.5,6.2,4.7,6.8c3.2,0.6,6.2-1.5,6.8-4.7c3.5-0.2,7-0.5,10.5-0.7
		c0.2,1,0.7,1.9,1.3,2.7c2.5,3.2,7,3.7,10.2,1.3c3.2-2.5,3.7-7,1.3-10.2S51.2,25.4,48,27.8z M45.3,32.3l-10.6,0.8
		c-0.5-1.5-1.7-2.8-3.1-3.4l1.1-6.3c1.1-0.1,2.2-0.5,3.1-1.2l10.4,8C45.7,30.8,45.5,31.5,45.3,32.3z"/>
</g>
</svg>
