<?xml version="1.0" encoding="utf-8"?>
<!-- Generator: Adobe Illustrator 24.3.0, SVG Export Plug-In . SVG Version: 6.00 Build 0)  -->
<svg version="1.1" id="레이어_1" xmlns="http://www.w3.org/2000/svg" xmlns:xlink="http://www.w3.org/1999/xlink" x="0px"
	 y="0px" viewBox="0 0 80 80" style="enable-background:new 0 0 80 80;" xml:space="preserve">
<style type="text/css">
	.st0{fill:#FFFFFF;}
	.st1{fill:#3599FF;}
	.st2{fill:#98A7B7;}
</style>
<g>
	<path class="st0" d="M38.3,30.1c8.8,1.1,16.1-6.3,15-15c-0.8-6-5.6-10.8-11.5-11.5c-8.8-1.1-16.1,6.3-15,15
		C27.5,24.5,32.3,29.3,38.3,30.1z"/>
	<path class="st1" d="M50,45c0,8.3,6.7,15,15,15c2.4,0,4.9-0.6,7-1.8l2.9-2c6.2-5.5,6.8-14.9,1.3-21.1s-14.9-6.8-21.1-1.3
		c-1,0.9-1.8,1.9-2.6,2.9c0,0-1,1.4-1.6,3.3C50.3,41.6,50,43.3,50,45z M65,33.3c6.4,0,11.7,5.2,11.7,11.7c0,6.4-5.2,11.7-11.7,11.7
		c-6.4,0-11.7-5.2-11.7-11.7C53.3,38.6,58.5,33.3,65,33.3z"/>
	<path class="st2" d="M23.3,16.8c0,9.5,8,17.2,17.7,16.7c8.5-0.4,15.4-7.4,15.8-15.8C57.2,8,49.6,0,40,0C30.8,0,23.3,7.5,23.3,16.8z
		 M38.3,3.4c8.8-1.1,16.1,6.3,15,15c-0.8,6-5.6,10.8-11.5,11.5c-8.8,1.1-16.1-6.3-15-15C27.5,9,32.3,4.2,38.3,3.4z"/>
	<polygon class="st1" points="63.3,53.3 66.6,53.3 66.6,46.7 73.3,46.7 73.3,43.3 66.6,43.3 66.6,36.7 63.3,36.7 63.3,43.3 
		56.6,43.3 56.6,46.7 63.3,46.7 	"/>
	<path class="st2" d="M69,77.1c1.1,1.8,3,2.9,5.1,2.9c3.2,0,5.8-2.6,5.8-5.8c0-0.5-0.1-1.1-0.2-1.6c-1-3.4-2.5-8.4-4-13.6l0,0
		l-0.8-2.8l-2.9,2c2,6.7,4,13.5,4.5,15.3c0.4,1.3-0.4,2.7-1.7,3.1c-1.1,0.3-2.3-0.2-2.9-1.2l0,0c-2.1-3.5-5.2-8.8-7.2-12
		c-1.7,0-3.4-0.3-5-0.8l-0.6,14H21l-0.9-20.7c0,0-9,13.9-12.1,19.5c-1.4,2.6-5.4,0.9-4.6-1.8c2-6.5,6.5-21.1,8.9-29.5
		c0.7-2.4,2.8-4,5.3-4h33.3c0.6-2,1.6-3.3,1.6-3.3H17.6c-3.9,0-7.4,2.6-8.5,6.4c-2.4,8.4-6.8,23-8.9,29.4c-0.1,0.5-0.2,1-0.2,1.6
		C0,75.6,1,80,5.8,80c2.1,0,4.1-1.1,5.1-3c1.7-3,4.3-7.3,6.3-10.5L17.8,80h44.6l0.5-13.1"/>
</g>
</svg>
