<?xml version="1.0" encoding="utf-8"?>
<!-- Generator: Adobe Illustrator 24.3.0, SVG Export Plug-In . SVG Version: 6.00 Build 0)  -->
<svg version="1.1" id="레이어_1" xmlns="http://www.w3.org/2000/svg" xmlns:xlink="http://www.w3.org/1999/xlink" x="0px"
	 y="0px" viewBox="0 0 70 70" style="enable-background:new 0 0 70 70;" xml:space="preserve">
<style type="text/css">
	.st0{fill:#98A7B7;}
	.st1{fill:#3599FF;}
</style>
<g>
	<path class="st0" d="M53.8,16.3c0,2.3-1.9,4.1-4.1,4.1c-2.3,0-4.2-1.8-4.2-4.1v-2.1H24.6v2.1c0,2.3-1.9,4.1-4.1,4.1
		c-2.3,0-4.2-1.8-4.2-4.1v-2.1H10V60h50V14.2h-6.3V16.3z M55.8,55.8H14.2V26.7h41.7V55.8z"/>
	<path class="st0" d="M49.6,18.3c1.2,0,2.1-0.9,2.1-2.1v-4.2c0-1.2-0.9-2.1-2.1-2.1s-2.1,0.9-2.1,2.1v4.2
		C47.5,17.4,48.4,18.3,49.6,18.3z"/>
	<path class="st0" d="M20.4,18.3c1.2,0,2.1-0.9,2.1-2.1v-4.2c0-1.2-0.9-2.1-2.1-2.1s-2.1,0.9-2.1,2.1v4.2
		C18.3,17.4,19.3,18.3,20.4,18.3z"/>
	<path class="st1" d="M33,49.6c4.7-8.4,8-12.8,12.4-16.7l-0.6-1.3c-4.8,2.9-9.1,6.6-12.7,10.9c-1.8-1.3-3.7-2.5-5.8-3.4l-1.8,1.6
		C27.6,43.5,30.4,46.4,33,49.6z"/>
</g>
</svg>
