<?xml version="1.0" encoding="utf-8"?>
<!-- Generator: Adobe Illustrator 24.3.0, SVG Export Plug-In . SVG Version: 6.00 Build 0)  -->
<svg version="1.1" id="레이어_1" xmlns="http://www.w3.org/2000/svg" xmlns:xlink="http://www.w3.org/1999/xlink" x="0px"
	 y="0px" viewBox="0 0 30 30" style="enable-background:new 0 0 30 30;" xml:space="preserve">
<style type="text/css">
	.st0{fill:#3599FF;}
	.st1{fill:#98A7B7;}
</style>
<g>
	<path class="st0" d="M17.7,11.5c-0.2-0.5,0-0.9,0.4-1.5l-1-1c-0.6,0.3-1,0.6-1.5,0.4C15,9.1,14.9,8.7,14.7,8l-1.3,0
		c-0.2,0.7-0.3,1.1-0.8,1.3c-0.5,0.2-0.9,0-1.5-0.4l-1,1c0.3,0.7,0.6,1,0.4,1.5C10.1,12,9.7,12.1,9,12.3v1.3
		c0.7,0.2,1.1,0.3,1.3,0.8s0,0.9-0.4,1.5l1,1c0.7-0.3,1-0.6,1.5-0.4c0.5,0.2,0.6,0.7,0.8,1.3h1.3c0.2-0.7,0.3-1.1,0.8-1.3
		c0.5-0.2,0.9,0,1.5,0.4l1-1c-0.3-0.7-0.6-1-0.4-1.5c0.2-0.5,0.7-0.6,1.3-0.8v-1.3C18.3,12.1,17.9,12,17.7,11.5z M15.7,13
		c0,0.9-0.7,1.7-1.7,1.7c-0.9,0-1.7-0.7-1.7-1.7c0-0.9,0.7-1.7,1.7-1.7C14.9,11.3,15.7,12.1,15.7,13C15.7,13,15.7,13,15.7,13z"/>
	<path class="st1" d="M23.8,13.1L23.8,13.1c0.4-0.8,0.5-1.8,0.2-2.6C22.6,6,19.2,3,14.1,3C8.7,3,4.2,6.6,4,11.8
		c0,2.7,0.9,5.3,2.5,7.4C6.8,19.9,7,20.6,7,21.3C7,23.2,6.8,25.1,6.4,27H19c0.2-0.9,0.4-1.8,0.6-2.7c0.2-0.5,0.3-0.6,0.7-0.7
		c1-0.2,2.3-0.2,3-1.8c0.3-0.7,0.9-3.3,0.9-3.3c0.5-0.1,0.9-0.3,1.2-0.6c0.4-0.4,0.6-0.9,0.6-1.4c0-0.4-0.2-0.9-0.4-1.2L23.8,13.1z
		 M22.3,17c-0.2,1.3-0.4,2.6-0.8,3.9c-0.3,0.7-0.7,0.6-1.5,0.8c-0.8,0.1-1.5,0.6-1.9,1.3c-0.3,0.6-0.6,1.3-0.7,2.1H8.8
		C9,23.7,9.1,22.4,9,21.1c-0.1-1.4-0.6-2.8-1.5-3.9c-1.1-1.7-1.6-3.7-1.5-5.7C6.4,7.5,9.9,5,14.2,5c4.1,0,6.9,2.4,8,6.3
		c0.1,0.2,0.1,0.4,0,0.6c-0.3,0.7-0.6,1.2-0.2,1.9c0.1,0.3,1.8,2.4,2,2.6C23.4,16.7,22.9,16.9,22.3,17z"/>
</g>
</svg>
