<?xml version="1.0" encoding="utf-8"?>
<!-- Generator: Adobe Illustrator 24.3.0, SVG Export Plug-In . SVG Version: 6.00 Build 0)  -->
<svg version="1.1" id="레이어_1" xmlns="http://www.w3.org/2000/svg" xmlns:xlink="http://www.w3.org/1999/xlink" x="0px"
	 y="0px" viewBox="0 0 70 70" style="enable-background:new 0 0 70 70;" xml:space="preserve">
<style type="text/css">
	.st0{fill:#98A7B7;}
	.st1{fill:#3599FF;}
</style>
<g>
	<path class="st0" d="M35,56.3c-0.9,0-2.3-1.5-3.5-4.7c-1.2,0.6-2.3,1.1-3.3,1.5c1.6,4.2,3.9,6.9,6.8,6.9c3,0,5.3-2.9,6.9-7.2
		c-1-0.4-2.1-0.9-3.3-1.5C37.4,54.8,35.9,56.3,35,56.3z"/>
	<path class="st0" d="M35,13.7c0.9,0,2.3,1.5,3.5,4.7c1.2-0.6,2.3-1.1,3.3-1.5C40.2,12.7,37.9,10,35,10c-3,0-5.3,2.9-6.9,7.2
		c1,0.4,2.1,0.9,3.3,1.5C32.6,15.2,34.1,13.7,35,13.7z"/>
	<path class="st0" d="M52.1,16.7c-5.4,0-12.7,3.7-17.4,6.6c-4.6-2.7-11.6-6.1-16.9-6.1c-3.5,0-5.9,1.7-5.9,4.9
		c0.1,1.9,0.7,3.7,1.7,5.2c-0.3,0.6-0.5,1.3-0.5,2c0,0,0,0,0,0.1c0,2.2,1.9,4,4.1,4c2.2,0,4-1.9,4-4.1c0-2.2-1.9-4-4.1-4l-0.4,0
		c-1.2-2.2-1.2-3.4-0.9-3.8c0.6-0.5,1.4-0.7,2.1-0.6c2.2,0.1,4.3,0.6,6.3,1.4c2.5,0.9,4.8,2,7.1,3.3c-4.1,2.8-8,6-11.5,9.6
		c-1.4,1.5-2.8,3-4,4.7c-2.8,3.8-3.8,6.5-3.8,8.5c0,5.9,6.7,5.8,13.2,3.4h0c9.8-3.6,22.6-12.9,29.1-21.5c2.8-3.8,3.8-6.5,3.8-8.5
		C58,18.9,56.1,16.7,52.1,16.7z M51.4,28c-4,5.4-10.5,10.7-16.2,14.4c-4.6,3-12.4,7.2-17.3,7.2c-1.1,0-1.8-0.2-2.1-0.6
		c-0.8-1.2,0.9-5.5,6.8-11.5c2.2,2,4.5,3.8,6.9,5.5l0,0c1.3-0.7,2.4-1.3,3.4-2c-2.7-1.8-5.3-3.8-7.8-6c3-2.7,6.2-5.2,9.6-7.4
		c2.8,1.8,5.6,3.7,8.2,5.9c0.9-0.8,1.8-1.7,2.7-2.5c-2.4-1.9-4.8-3.8-7.4-5.5c3.6-2.1,9.8-5.1,13.9-5.1c1.1,0,1.8,0.2,2.1,0.6
		C54.6,21.6,54.5,23.8,51.4,28z"/>
	<path class="st1" d="M35,30.8c-2.3,0-4.2,1.9-4.2,4.2c0,2.3,1.9,4.2,4.2,4.2c2.3,0,4.2-1.8,4.2-4.1S37.3,30.8,35,30.8z"/>
	<path class="st0" d="M54.6,37.4c-1.9-1-4.3-0.2-5.3,1.7c-1,1.9-0.2,4.3,1.7,5.3c0.6,0.3,1.2,0.4,1.8,0.4l0.5,0
		c1.2,2.1,1.1,3.3,0.9,3.7c-0.6,0.5-1.4,0.7-2.1,0.6c-3.3,0-8-2-11-3.5c-1,0.7-2.2,1.6-3.5,2.3c4,2.2,9.9,4.8,14.5,4.8
		c3.4,0,5.9-1.7,5.9-4.9c-0.1-1.8-0.7-3.6-1.7-5.2C57.3,40.8,56.6,38.4,54.6,37.4z"/>
	<path class="st1" d="M52.8,37c-2.2,0-4,1.8-4,4c0,2.2,1.8,3.9,3.9,4c2.2,0,4-1.8,4-3.9C56.8,38.8,55,37,52.8,37z"/>
	<path class="st1" d="M17.1,25.3c-2.3,0-4.2,1.9-4.2,4.2c0,2.3,1.9,4.2,4.2,4.2c2.3,0,4.2-1.9,4.2-4.2S19.4,25.3,17.1,25.3z"/>
</g>
</svg>
