<?xml version="1.0" encoding="utf-8"?>
<!-- Generator: Adobe Illustrator 24.3.0, SVG Export Plug-In . SVG Version: 6.00 Build 0)  -->
<svg version="1.1" id="레이어_1" xmlns="http://www.w3.org/2000/svg" xmlns:xlink="http://www.w3.org/1999/xlink" x="0px"
	 y="0px" viewBox="0 0 80 80" style="enable-background:new 0 0 80 80;" xml:space="preserve">
<style type="text/css">
	.st0{fill:#3599FF;}
	.st1{fill:#98A7B7;}
</style>
<g>
	<path class="st0" d="M2.2,51.1c1.6,0.6,3.4-0.1,4.2-1.5l1-1.8l0.9,21.5c0.1,2.3,1.9,4,4.2,4c2.2,0,4-1.7,4.2-3.9L17.8,56l1.4,13.4
		c0.2,2.2,2,3.8,4.2,3.9c2.3,0,4.1-1.8,4.2-4c0,0,0.8-22.4,1-27.1c0.1-1.7,0.8-3.4,2.1-4.6l10.2-9.7c1.2-1.2,1.3-3,0.2-4.3
		c-1-1.2-2.8-1.5-4.1-0.7c-2.3,1.4-8,4.6-10.5,6c-1.3,0.7-2.8,1.1-4.3,1.1H8.4c-2.1,0-3.9,1.4-4.5,3.4L0.1,47C0,47.3,0,47.7,0,48
		C0,49.4,0.9,50.6,2.2,51.1z M7.1,34.3c0.2-0.6,0.7-1,1.3-1h13.7c2.1,0,4.1-0.6,5.9-1.5c2.4-1.4,8.2-4.6,10.4-6.2l-10.1,9.7
		c-1.9,1.8-3,4.3-3.1,6.9c-0.2,4.7-1,27.1-1,27.1c0,0.5-0.4,0.8-0.9,0.8c-0.5,0-0.8-0.4-0.8-0.9c-0.2-1.7-1.2-12-1.3-13.1
		c-0.1-1.8-1.6-3.3-3.4-3.3c-1.8,0-3.3,1.5-3.3,3.4c-0.1,2-1,13.1-1,13.1c-0.1,0.9-1.7,0.9-1.7,0l-1.1-29.3c0-0.4-0.2-0.7-0.6-0.9
		c-0.5-0.3-1.2-0.1-1.6,0.4l-5,8.6C3.7,46.5,6.1,37.7,7.1,34.3z"/>
	<path class="st0" d="M50,70h-6.7c-3.7,0-6.7,3-6.7,6.7V80h20v-3.3C56.7,73,53.7,70,50,70z M40,76.7c0-1.8,1.5-3.3,3.3-3.3H50
		c1.8,0,3.3,1.5,3.3,3.3H40z"/>
	<path class="st0" d="M73.3,70h-6.7C63,70,60,73,60,76.7V80h20v-3.3C80,73,77,70,73.3,70z M63.3,76.7c0-1.8,1.5-3.3,3.3-3.3h6.7
		c1.8,0,3.3,1.5,3.3,3.3H63.3z"/>
	<path class="st0" d="M17.6,13.3c-4.3,0-7.7,3.5-7.7,7.7c0,4.3,3.5,7.7,7.7,7.7c4.3,0,7.7-3.5,7.7-7.7
		C25.3,16.8,21.8,13.3,17.6,13.3z M17.6,25.4c-2.4,0-4.4-2-4.4-4.4c0,0,0,0,0,0c0-2.4,2-4.4,4.4-4.4v0c2.4,0,4.4,2,4.4,4.4
		C22,23.5,20,25.4,17.6,25.4z"/>
	<path class="st0" d="M70,69.1c4.4,0,7.9-3.5,7.9-7.9c0,0,0,0,0,0c0-4.4-3.5-7.9-7.9-7.9c-4.4,0-7.9,3.5-7.9,7.9
		C62.1,65.6,65.6,69.1,70,69.1z M65.5,61.2c0-2.5,2-4.5,4.5-4.5c2.5,0,4.5,2,4.5,4.5s-2,4.5-4.5,4.5S65.5,63.7,65.5,61.2
		C65.5,61.2,65.5,61.2,65.5,61.2z"/>
	<polygon class="st1" points="0,0 0,36.7 3.3,26.7 3.3,3.3 76.7,3.3 76.7,46.7 66.7,46.7 66.7,43.3 56.7,43.3 56.7,46.7 31.1,46.7 
		31.1,50 80,50 80,0 	"/>
	<path class="st0" d="M46.7,69.1c4.4,0,7.9-3.5,7.9-7.9c0,0,0,0,0,0c0-4.4-3.5-7.9-7.9-7.9c-4.4,0-7.9,3.5-7.9,7.9
		C38.8,65.6,42.3,69.1,46.7,69.1z M42.1,61.2c0-2.5,2-4.5,4.5-4.5c2.5,0,4.5,2,4.5,4.5s-2,4.5-4.5,4.5S42.1,63.7,42.1,61.2
		C42.1,61.2,42.1,61.2,42.1,61.2z"/>
	<rect x="46.7" y="13.3" class="st1" width="23.3" height="3.3"/>
	<rect x="46.7" y="20" class="st1" width="23.3" height="3.3"/>
	<rect x="46.7" y="26.7" class="st1" width="13.3" height="3.3"/>
</g>
</svg>
