<?xml version="1.0" encoding="utf-8"?>
<!-- Generator: Adobe Illustrator 24.3.0, SVG Export Plug-In . SVG Version: 6.00 Build 0)  -->
<svg version="1.1" id="레이어_1" xmlns="http://www.w3.org/2000/svg" xmlns:xlink="http://www.w3.org/1999/xlink" x="0px"
	 y="0px" viewBox="0 0 70 70" style="enable-background:new 0 0 70 70;" xml:space="preserve">
<style type="text/css">
	.st0{fill:none;}
	.st1{fill:#FFFFFF;}
	.st2{fill:#98A7B7;}
	.st3{fill:#3599FF;}
</style>
<g id="그룹_157" transform="translate(-1338 -708)">
	<path id="사각형_213" class="st0" d="M1338,708h70v70h-70V708z"/>
	<g id="그룹_156" transform="translate(-74)">
		<g id="사각형_211" transform="translate(1412 713)">
			<path class="st1" d="M2,0h66c1.1,0,2,0.9,2,2v56c0,1.1-0.9,2-2,2H2c-1.1,0-2-0.9-2-2V2C0,0.9,0.9,0,2,0z"/>
			<path class="st2" d="M67,60H3c-1.7,0-3-1.3-3-3V3c0-1.7,1.3-3,3-3h64c1.7,0,3,1.3,3,3v54C70,58.7,68.7,60,67,60z M5,55h60V5H5V55
				z"/>
		</g>
		<path id="다각형_19" class="st3" d="M1445.9,737.6c0.7-0.9,1.9-1,2.8-0.3c0.1,0.1,0.2,0.2,0.3,0.3l12.4,15.8
			c0.7,0.9,0.5,2.1-0.3,2.8c-0.4,0.3-0.8,0.4-1.2,0.4h-24.8c-1.1,0-2-0.9-2-2c0-0.4,0.2-0.9,0.4-1.2L1445.9,737.6z"/>
		<path id="사각형_212" class="st2" d="M1415,715h65v12h-65V715z"/>
	</g>
</g>
</svg>
